<?xml version="1.0" standalone="no"?>
<!DOCTYPE svg PUBLIC "-//W3C//DTD SVG 20010904//EN"
 "http://www.w3.org/TR/2001/REC-SVG-20010904/DTD/svg10.dtd">
<svg version="1.0" xmlns="http://www.w3.org/2000/svg"
 width="300.000000pt" height="300.000000pt" viewBox="0 0 300.000000 300.000000"
 preserveAspectRatio="xMidYMid meet">
<metadata>
Created by potrace 1.10, written by Peter Selinger 2001-2011
</metadata>
<g transform="translate(0.000000,300.000000) scale(0.100000,-0.100000)"
fill="#000000" stroke="none">
<path d="M1464 2435 c-8 -20 4 -35 27 -35 14 0 19 7 19 25 0 18 -5 25 -20 25
-11 0 -23 -7 -26 -15z"/>
<path d="M1262 2418 c-28 -28 -7 -78 33 -78 12 0 26 5 33 12 7 7 12 21 12 33
0 12 -5 26 -12 33 -7 7 -21 12 -33 12 -12 0 -26 -5 -33 -12z"/>
<path d="M1642 2418 c-7 -7 -12 -21 -12 -33 0 -29 19 -45 52 -45 36 0 56 36
39 69 -13 23 -59 29 -79 9z"/>
<path d="M1044 2345 c-8 -19 3 -35 26 -35 19 0 30 17 23 38 -6 17 -42 15 -49
-3z"/>
<path d="M1880 2335 c0 -22 4 -26 23 -23 14 2 22 10 22 23 0 13 -8 21 -22 23
-19 3 -23 -1 -23 -23z"/>
<path d="M927 2263 c-2 -5 -7 -20 -11 -35 -4 -19 -14 -28 -37 -33 -36 -8 -37
-38 -1 -43 16 -3 29 -15 38 -38 16 -39 35 -40 44 -4 5 23 18 33 53 44 27 8 20
33 -12 39 -22 5 -32 14 -41 42 -11 33 -24 44 -33 28z"/>
<path d="M2014 2233 c-12 -23 -28 -40 -43 -43 -37 -8 -36 -27 3 -40 26 -8 36
-18 41 -41 9 -38 28 -37 46 3 8 20 23 35 38 38 38 9 36 28 -3 44 -24 10 -36
22 -36 34 0 11 -6 25 -14 31 -11 10 -18 5 -32 -26z"/>
<path d="M1340 2237 c-155 -53 -266 -165 -310 -314 -8 -25 -19 -43 -27 -43 -8
0 -28 -13 -44 -29 -27 -28 -29 -34 -29 -111 0 -77 2 -83 29 -111 16 -16 38
-29 48 -29 12 0 27 -19 46 -61 16 -33 44 -78 64 -100 l35 -39 -41 -45 c-89
-97 -156 -234 -167 -344 -6 -51 -4 -60 21 -89 22 -26 34 -32 67 -32 35 0 47 6
80 40 l38 41 0 -78 c0 -89 22 -203 44 -235 9 -12 16 -25 16 -28 0 -3 -42 -5
-92 -5 -89 0 -93 -1 -96 -23 l-3 -22 473 2 c465 3 473 3 473 23 0 19 -7 20
-103 20 -56 0 -102 2 -102 4 0 3 7 12 15 21 23 26 46 134 48 230 l2 89 39 -39
c32 -33 45 -40 78 -40 28 0 46 7 63 25 68 67 -3 289 -137 431 -44 47 -47 52
-31 65 26 22 91 127 98 159 5 23 12 30 30 30 56 0 86 64 80 171 -4 61 -25 95
-64 104 -23 5 -30 13 -35 39 -27 142 -190 299 -347 335 -76 18 -187 13 -259
-12z m282 -61 c125 -44 217 -134 260 -253 29 -81 29 -255 0 -330 -61 -160
-214 -263 -390 -263 -93 0 -164 20 -239 69 -72 47 -107 87 -147 171 -30 62
-31 71 -31 190 1 106 4 134 24 183 25 63 108 161 168 198 99 61 241 75 355 35z
m-605 -442 c2 -71 0 -84 -11 -75 -17 14 -27 119 -14 144 17 33 23 17 25 -69z
m971 9 c2 -53 -1 -73 -13 -83 -13 -11 -15 -3 -15 75 0 65 3 86 13 83 8 -3 13
-30 15 -75z m-190 -378 c-2 -19 0 -35 4 -35 11 0 95 -115 119 -161 l18 -37
-52 -36 -52 -37 -8 53 c-32 218 -31 213 -54 216 -29 4 -38 31 -16 47 10 7 21
11 25 9 5 -3 8 0 8 5 0 6 3 11 6 11 3 0 4 -16 2 -35z m-582 10 c18 -17 10 -35
-15 -35 -26 0 -42 20 -28 36 16 17 25 17 43 -1z m-40 -62 c-9 -30 -26 -172
-26 -214 0 -21 -2 -39 -5 -39 -13 0 -105 66 -105 75 0 26 115 195 133 195 4 0
6 -8 3 -17z m133 -9 c117 -47 266 -44 379 9 23 11 44 18 47 16 2 -2 8 -42 15
-89 6 -47 13 -93 16 -102 4 -14 -4 -17 -53 -20 -51 -3 -58 -6 -61 -25 -3 -22
0 -23 58 -23 l61 0 -3 -117 -3 -116 -84 -19 c-86 -18 -101 -17 -101 7 0 7 -14
25 -32 40 -27 23 -39 26 -72 22 -42 -6 -86 -43 -86 -73 0 -8 -2 -14 -4 -14 -7
0 -138 30 -158 36 -16 5 -18 19 -18 119 l0 114 58 3 c49 3 57 6 57 23 0 17 -8
20 -59 23 l-58 3 5 37 c4 20 9 67 13 105 4 37 9 67 12 67 3 0 35 -12 71 -26z
m662 -280 c10 -51 0 -74 -30 -74 -16 0 -71 48 -71 62 0 9 84 67 89 62 2 -1 7
-24 12 -50z m-903 17 l43 -28 -26 -32 c-29 -33 -71 -42 -81 -16 -7 19 4 105
14 105 4 0 26 -13 50 -29z m91 -43 l-12 -23 -10 22 c-7 16 -6 27 3 38 12 15
14 15 22 1 5 -10 4 -24 -3 -38z m684 11 c3 -11 3 -18 0 -15 -3 3 -13 1 -22 -4
-14 -7 -17 -3 -18 26 -1 29 1 32 17 24 10 -5 20 -19 23 -31z m-330 -197 c9
-10 26 -48 37 -85 11 -36 25 -69 30 -72 6 -3 10 -12 10 -18 0 -9 -30 -12 -105
-12 -97 0 -120 5 -96 20 5 3 19 36 31 73 36 110 58 132 93 94z m-211 -48 c35
-9 64 -17 66 -19 5 -5 -28 -72 -42 -84 -37 -31 -84 10 -101 87 -8 37 -8 37 77
16z m447 -16 c-17 -61 -31 -87 -50 -93 -33 -11 -56 4 -77 48 l-20 42 62 17
c93 25 96 24 85 -14z"/>
<path d="M1413 2099 c-101 -19 -182 -72 -237 -152 -126 -184 -54 -433 152
-530 60 -29 76 -32 157 -31 156 1 264 64 336 196 32 60 34 68 34 163 0 89 -3
106 -28 156 -49 100 -153 176 -272 198 -66 12 -82 12 -142 0z m222 -62 c109
-55 184 -157 193 -263 7 -95 -25 -181 -92 -247 -92 -90 -118 -101 -241 -102
-82 0 -109 4 -147 22 -103 47 -186 159 -196 265 -4 42 -2 47 12 42 9 -3 16
-10 16 -14 0 -14 30 -20 55 -10 16 6 33 26 45 55 18 42 83 119 92 109 3 -2 13
5 23 16 10 11 24 20 31 20 16 0 34 31 34 59 0 11 -12 29 -27 41 -23 18 -25 23
-13 31 24 15 169 0 215 -24z m-210 -52 c0 -13 -10 -23 -30 -30 -16 -5 -41 -20
-55 -33 -14 -12 -37 -33 -52 -46 -15 -13 -32 -43 -38 -67 -13 -47 -25 -60 -47
-52 -29 11 -5 106 41 159 35 40 131 94 161 91 13 -1 20 -9 20 -22z"/>
<path d="M1382 1208 c-7 -7 -12 -39 -12 -79 0 -92 9 -99 114 -99 112 0 118 5
114 105 l-3 80 -100 3 c-70 2 -104 -1 -113 -10z m168 -78 l0 -40 -65 0 -65 0
0 40 0 40 65 0 65 0 0 -40z"/>
<path d="M738 2000 c-7 -21 -22 -36 -45 -45 -30 -13 -33 -17 -23 -30 7 -8 21
-15 32 -15 12 0 24 -12 34 -35 18 -44 29 -44 44 -1 8 26 18 35 40 40 39 7 38
31 -2 42 -24 7 -34 17 -40 42 -11 40 -26 41 -40 2z"/>
<path d="M2202 1998 c-6 -25 -16 -35 -40 -42 -40 -11 -41 -35 -2 -42 22 -5 32
-14 40 -40 15 -43 26 -43 44 1 10 23 22 35 34 35 11 0 25 7 32 15 10 12 5 17
-26 32 -24 11 -40 27 -44 42 -8 37 -28 36 -38 -1z"/>
<path d="M740 1705 c-17 -20 -5 -45 20 -45 11 0 23 7 26 15 6 15 -11 45 -26
45 -4 0 -13 -7 -20 -15z"/>
<path d="M2203 1713 c-18 -7 -16 -42 3 -50 8 -3 23 1 31 10 13 13 14 19 3 31
-13 17 -17 18 -37 9z"/>
<path d="M688 1510 c-43 -42 -49 -52 -38 -65 7 -8 18 -15 25 -15 7 0 15 -7 18
-14 3 -8 20 -22 38 -31 40 -21 89 -13 121 20 13 14 28 25 34 25 5 0 15 5 22
12 14 14 -2 48 -23 48 -8 0 -15 5 -15 10 0 6 -11 22 -25 35 -18 18 -35 25 -65
25 -35 0 -47 -7 -92 -50z m139 -26 c20 -31 -7 -56 -55 -52 -46 4 -63 29 -37
58 24 27 72 23 92 -6z"/>
<path d="M2144 1542 c-12 -9 -27 -27 -33 -39 -7 -13 -18 -23 -26 -23 -21 0
-19 -39 3 -47 9 -3 30 -18 45 -32 22 -20 39 -26 72 -26 33 0 50 6 72 26 15 14
36 29 46 32 17 6 25 47 9 47 -5 0 -27 18 -50 40 -33 33 -47 40 -79 40 -21 0
-48 -8 -59 -18z m102 -53 c24 -27 9 -53 -35 -57 -37 -4 -61 12 -61 39 0 39 65
52 96 18z"/>
<path d="M893 1324 c-3 -8 2 -23 11 -32 15 -15 17 -15 32 0 21 21 11 48 -16
48 -11 0 -23 -7 -27 -16z"/>
<path d="M2033 1324 c-3 -8 2 -23 11 -32 15 -15 17 -15 32 0 21 21 11 48 -16
48 -11 0 -23 -7 -27 -16z"/>
<path d="M740 1225 c-11 -13 -11 -19 3 -32 21 -21 49 -9 45 19 -4 28 -30 35
-48 13z"/>
<path d="M2184 1225 c-8 -21 2 -45 19 -45 8 0 20 7 27 15 10 12 10 18 0 30 -7
8 -19 15 -27 15 -7 0 -16 -7 -19 -15z"/>
<path d="M748 966 c-19 -44 15 -82 60 -65 29 11 37 34 24 65 -9 18 -19 24 -42
24 -23 0 -33 -6 -42 -24z"/>
<path d="M2152 978 c-30 -30 7 -95 47 -81 20 7 41 32 41 49 0 35 -62 58 -88
32z"/>
<path d="M875 830 c-9 -15 4 -50 19 -50 20 0 39 27 32 45 -6 17 -42 20 -51 5z"/>
<path d="M2054 826 c-9 -24 4 -48 23 -44 12 2 18 12 18 28 0 29 -32 41 -41 16z"/>
<path d="M1017 784 c-12 -12 -8 -42 6 -47 21 -8 39 8 35 29 -3 19 -29 30 -41
18z"/>
<path d="M1913 774 c-3 -8 1 -22 9 -30 12 -12 17 -12 33 -1 23 17 14 47 -15
47 -11 0 -23 -7 -27 -16z"/>
<path d="M906 614 c-9 -23 6 -36 35 -32 16 2 24 10 24 23 0 27 -49 34 -59 9z"/>
<path d="M2014 615 c-8 -21 4 -35 31 -35 24 0 35 16 28 38 -6 17 -52 15 -59
-3z"/>
</g>
</svg>
